<?xml version="1.0" standalone="no"?>
<!DOCTYPE svg PUBLIC "-//W3C//DTD SVG 20010904//EN"
 "http://www.w3.org/TR/2001/REC-SVG-20010904/DTD/svg10.dtd">
<svg version="1.0" xmlns="http://www.w3.org/2000/svg"
 width="512.000000pt" height="512.000000pt" viewBox="0 0 512.000000 512.000000"
 preserveAspectRatio="xMidYMid meet">
<metadata>
Created by potrace 1.14, written by Peter Selinger 2001-2017
</metadata>
<g transform="translate(0.000000,512.000000) scale(0.100000,-0.100000)"
fill="#000000" stroke="none">
<path d="M1978 5115 c-2 -1 -43 -5 -93 -9 -49 -3 -115 -10 -146 -15 -128 -21
-352 -82 -373 -102 -6 -5 -17 -9 -25 -9 -28 0 -189 -100 -247 -152 -137 -126
-128 -251 25 -328 84 -42 248 -81 501 -120 181 -28 236 -39 321 -66 57 -18 85
-33 104 -55 24 -30 25 -33 9 -50 -20 -23 -166 -68 -334 -104 -49 -11 -196 -62
-257 -90 -134 -62 -233 -157 -233 -225 0 -33 37 -97 70 -121 16 -12 27 -25 25
-29 -3 -4 -31 -11 -62 -15 -71 -8 -140 -20 -233 -39 -14 -3 -38 -8 -55 -12
-73 -15 -318 -89 -399 -121 -212 -84 -357 -190 -412 -301 -16 -31 -19 -60 -19
-172 1 -117 9 -254 20 -310 2 -10 6 -35 9 -56 62 -404 196 -754 413 -1078 41
-61 75 -114 76 -119 1 -4 -41 -25 -93 -46 -136 -56 -318 -157 -366 -205 -6 -6
-27 -25 -47 -43 -48 -42 -101 -113 -128 -171 -17 -36 -22 -66 -23 -132 0 -76
3 -92 33 -152 134 -271 645 -507 1316 -607 67 -10 97 -14 210 -26 28 -3 66 -7
85 -10 82 -9 338 -19 500 -19 171 0 449 11 473 19 7 2 46 6 87 10 41 3 122 13
180 21 415 60 750 157 1000 291 77 42 167 100 196 128 7 6 25 22 41 36 15 13
44 44 63 69 19 25 37 47 40 50 8 8 42 83 47 105 50 211 -101 413 -433 578 -49
25 -122 57 -161 73 -69 26 -72 29 -57 45 9 10 19 18 23 17 21 -5 171 19 267
42 648 160 1177 741 1199 1315 8 210 -46 366 -169 491 -84 83 -146 107 -281
108 -55 0 -116 -3 -135 -7 -105 -23 -263 -88 -372 -154 l-63 -39 -35 39 c-101
114 -446 270 -711 322 -9 2 -60 13 -113 24 -53 12 -113 24 -134 27 -20 3 -77
12 -127 19 -49 8 -121 17 -160 21 -38 3 -83 7 -100 10 -27 3 -92 8 -255 19
-30 2 -125 4 -210 4 l-156 1 -17 30 c-17 28 -17 30 2 49 10 10 43 24 73 30 63
12 101 16 361 36 176 14 221 18 323 36 229 38 371 108 435 214 27 43 24 101
-5 139 -33 43 -107 77 -319 147 -253 82 -361 139 -411 220 l-16 25 93 13 c271
38 442 134 423 236 -27 145 -362 243 -853 250 -111 2 -203 2 -205 0z m2514
-2179 c71 -16 76 -21 72 -73 -7 -87 -34 -227 -60 -308 -78 -242 -217 -417
-408 -510 -50 -25 -106 -48 -123 -51 l-32 -6 30 83 c95 257 162 580 168 806 1
40 3 43 39 52 20 5 51 12 67 14 38 6 211 1 247 -7z"/>
</g>
</svg>
