<svg xmlns="http://www.w3.org/2000/svg" width="299" height="193" fill="none"><path fill="#FFF" d="M96 176.568c44.183 0 80-35.817 80-80s-35.817-80-80-80-80 35.817-80 80 35.817 80 80 80"/><path fill="#000" d="m51.254 98.15 16.497-40.904 21.017 8.588c3.842 1.582 6.78 3.163 8.588 4.745s2.938 3.39 3.39 5.65q.678 3.39-.678 7.458c-.904 2.26-2.26 4.067-3.842 5.197s-3.616 2.034-5.65 2.486c-1.356.226-2.938.226-5.198-.226 1.356 1.13 2.26 2.034 2.712 2.938.226.452.678 1.582 1.13 2.938s.678 2.486.678 3.164l1.356 14.237-14.237-5.876-1.582-15.14c-.226-2.035-.452-3.39-.904-4.069-.678-.903-1.582-1.808-2.712-2.26l-1.13-.451-6.78 16.723zm22.599-19.209 5.424 2.26c.678.226 1.808.452 3.616.904.903.226 1.808 0 2.485-.452.904-.452 1.356-1.13 1.808-2.034.452-1.356.452-2.486 0-3.616s-2.034-2.034-4.293-2.938l-5.65-2.26zm24.859 22.825 12.429 4.068c-.452 2.033-.678 3.841-.226 5.197.678 2.26 2.26 3.842 4.52 4.746 1.808.678 3.39.904 4.746.452s2.26-1.13 2.712-2.26.452-2.26-.226-3.39-2.486-2.937-5.424-4.971c-4.972-3.39-8.362-6.78-9.943-9.718-1.582-2.938-1.582-6.102-.452-9.265.904-2.034 2.259-3.842 4.293-5.198s4.52-2.034 7.232-2.26c2.938 0 6.554.678 10.621 2.486 5.198 2.034 8.814 4.746 10.848 7.683 2.034 2.938 2.26 6.78 1.13 11.3l-12.204-4.068c.452-2.034.226-3.616-.451-4.746-.678-1.356-1.808-2.26-3.616-2.938-1.582-.677-2.712-.677-3.616-.451s-1.582.903-2.034 1.807c-.226.678-.226 1.356.226 2.034s1.582 1.808 3.616 3.164c4.972 3.39 8.587 6.328 10.395 8.362 1.808 2.26 2.938 4.293 3.39 6.553s0 4.52-.904 6.78c-1.13 2.712-2.712 4.746-5.198 6.328-2.259 1.582-4.971 2.486-8.135 2.486s-6.554-.678-10.622-2.26c-7.005-2.712-11.299-6.102-12.881-9.944-1.356-3.842-1.582-7.683-.226-11.977m140.788 1.802c24.024 0 43.5-19.475 43.5-43.5s-19.476-43.5-43.5-43.5-43.5 19.476-43.5 43.5 19.476 43.5 43.5 43.5"/><path fill="#fff" d="M217.2 70.068v-24h12.4c2.3 0 4 .2 5.3.6 1.2.4 2.2 1.1 2.9 2.2s1.1 2.4 1.1 3.9c0 1.3-.3 2.5-.9 3.4s-1.3 1.8-2.3 2.4c-.6.4-1.5.7-2.6 1 .9.3 1.5.6 1.9.9.3.2.7.6 1.2 1.3.5.6.9 1.1 1 1.5l3.6 7h-8.4l-4-7.3c-.5-1-1-1.6-1.3-1.9q-.75-.6-1.8-.6h-.7v9.8h-7.4zm7.5-14.3h3.1c.3 0 1-.1 2-.3.5-.1.9-.3 1.2-.8s.5-.9.5-1.4c0-.8-.2-1.4-.7-1.8s-1.4-.6-2.8-.6h-3.3zm17.2 6.4 7.1-.4c.2 1.1.5 2 .9 2.6q1.2 1.5 3.3 1.5c1.1 0 1.9-.2 2.5-.7s.9-1.1.9-1.7-.3-1.2-.8-1.7-1.8-1-3.8-1.4c-3.3-.7-5.6-1.7-7-2.9s-2.1-2.8-2.1-4.6c0-1.2.4-2.4 1.1-3.5s1.8-2 3.2-2.6 3.4-.9 5.9-.9c3.1 0 5.4.6 7 1.7s2.6 3 2.9 5.4l-7 .4q-.3-1.65-1.2-2.4c-.6-.5-1.4-.7-2.5-.7-.9 0-1.5.2-1.9.5-.4.4-.7.8-.7 1.3 0 .4.2.7.5 1s1.2.6 2.5.9c3.2.7 5.6 1.4 7 2.1s2.4 1.6 3.1 2.7c.6 1.1 1 2.2 1 3.6 0 1.5-.4 3-1.3 4.3s-2 2.3-3.6 3-3.5 1-5.8 1c-4.1 0-6.9-.8-8.5-2.4s-2.5-3.7-2.7-6.1"/></svg>