<?xml version="1.0" standalone="no"?>
<!DOCTYPE svg PUBLIC "-//W3C//DTD SVG 20010904//EN"
 "http://www.w3.org/TR/2001/REC-SVG-20010904/DTD/svg10.dtd">
<svg version="1.0" xmlns="http://www.w3.org/2000/svg"
 width="512.000000pt" height="512.000000pt" viewBox="0 0 512.000000 512.000000"
 preserveAspectRatio="xMidYMid meet">
<metadata>
Created by potrace 1.14, written by Peter Selinger 2001-2017
</metadata>
<g transform="translate(0.000000,512.000000) scale(0.100000,-0.100000)"
fill="#000000" stroke="none">
<path d="M1422 4868 c-199 -30 -388 -182 -471 -376 -43 -104 -47 -160 -46
-637 1 -442 1 -451 23 -492 24 -47 59 -77 108 -95 28 -10 35 -18 40 -47 38
-229 159 -437 328 -566 l36 -27 0 -124 0 -124 -34 0 c-54 0 -113 -26 -174 -77
-88 -75 -90 -77 -104 -79 -37 -5 -109 -29 -156 -50 -29 -13 -55 -24 -59 -24
-3 0 -69 -21 -147 -46 -78 -25 -148 -47 -156 -49 -29 -7 -165 -53 -210 -71
-73 -29 -163 -90 -217 -146 -49 -53 -123 -159 -123 -178 0 -6 -4 -18 -10 -28
-5 -9 -17 -39 -27 -67 -16 -45 -18 -101 -20 -570 -2 -495 -1 -522 17 -570 24
-61 85 -126 149 -157 l46 -23 1715 -1 c1360 -1 1724 2 1758 12 52 15 122 67
151 111 44 68 51 107 51 311 l0 192 100 0 c98 0 100 0 106 -25 12 -50 29 -52
434 -50 409 1 401 0 485 62 22 16 54 54 70 84 l30 54 0 1320 0 1320 -23 44
c-14 26 -141 161 -321 341 -225 225 -310 304 -347 321 l-49 24 -568 1 c-613 1
-597 2 -617 -52 -9 -23 -13 -24 -110 -24 -89 0 -100 2 -100 18 0 29 -46 115
-82 154 -53 56 -141 95 -224 98 -7 0 -15 20 -19 45 -17 119 -101 222 -208 257
-39 13 -945 18 -1025 6z"/>
</g>
</svg>
